<svg width="700" height="700" viewBox="0 0 700 700" fill="none" xmlns="http://www.w3.org/2000/svg">
<rect width="700" height="700" fill="white"/>
<path d="M549.896 462.241C567.966 427.676 576.74 389.008 575.359 350.029C573.977 311.05 562.486 273.1 542.014 239.902C521.542 206.703 492.792 179.396 458.583 160.66C424.375 141.924 385.884 132.403 346.886 133.029C307.888 133.656 269.722 144.409 236.133 164.234C202.544 184.059 174.686 212.275 155.291 246.114C135.896 279.953 125.63 318.253 125.501 357.256C125.372 396.259 135.384 434.626 154.555 468.592L206.763 419.5C193.537 396.065 195.175 384.396 195.264 357.487C195.353 330.577 202.435 304.152 215.817 280.805C229.198 257.459 248.419 237.991 271.593 224.313C294.768 210.635 321.1 203.216 348.006 202.783C374.913 202.351 401.469 208.921 425.071 221.847C448.673 234.774 468.509 253.614 482.634 276.519C496.758 299.424 504.686 325.608 505.639 352.501C506.592 379.394 506.814 382.652 494.347 406.5L549.896 462.241Z" fill="#EF7A2D"/>
<path d="M230 431.5L93 558.5H230V431.5Z" fill="#353A47"/>
<path d="M288 466.5V373.5L350 316.5L466 426V499.5H548L607.5 559H406.5V463L349 409.5L288 466.5Z" fill="#353A47"/>
<circle cx="349" cy="520.5" r="46.5" fill="#EF7A2D"/>
</svg>
