<svg width="150" height="150" viewBox="0 0 150 150" fill="none" xmlns="http://www.w3.org/2000/svg">
<path d="M117.835 99.0517C121.707 91.6449 123.587 83.3588 123.291 75.0062C122.995 66.6537 120.533 58.5215 116.146 51.4075C111.759 44.2935 105.598 38.4421 98.2679 34.4272C90.9375 30.4124 82.6894 28.372 74.3327 28.5062C65.9759 28.6405 57.7976 30.9447 50.6 35.193C43.4023 39.4413 37.4327 45.4876 33.2766 52.7388C29.1205 59.99 26.9207 68.1971 26.8931 76.5548C26.8654 84.9126 29.0109 93.1341 33.1189 100.413L44.3065 89.8929C41.4721 84.8711 41.8232 82.3707 41.8423 76.6043C41.8613 70.8379 43.379 65.1755 46.2465 60.1726C49.114 55.1697 53.2327 50.9981 58.1986 48.067C63.1645 45.136 68.8071 43.5462 74.5728 43.4536C80.3385 43.3609 86.0292 44.7687 91.0867 47.5387C96.1442 50.3087 100.395 54.3459 103.421 59.2541C106.448 64.1623 108.147 69.773 108.351 75.5358C108.556 81.2986 108.603 81.9969 105.931 87.1071L117.835 99.0517Z" fill="#EF7A2D"/>
<path d="M49.2857 92.4642L19.9286 119.679H49.2857V92.4642Z" fill="#353A47"/>
<path d="M61.7142 99.9643V80.0357L74.9999 67.8214L99.8571 91.2857V107.036H117.429L130.179 119.786H87.1071V99.2143L74.7857 87.75L61.7142 99.9643Z" fill="#353A47"/>
<circle cx="74.7857" cy="111.536" r="9.96429" fill="#EF7A2D"/>
</svg>
