<svg width="30" height="30" viewBox="0 0 30 30" fill="none" xmlns="http://www.w3.org/2000/svg">
<path d="M23.75 23.75H6.25" stroke="#EF7A2D" stroke-width="2" stroke-linecap="round"/>
<path d="M11.75 10H10.75C9.64543 10 8.75 10.8954 8.75 12V18C8.75 19.1046 9.64543 20 10.75 20H11.75C12.8546 20 13.75 19.1046 13.75 18V12C13.75 10.8954 12.8546 10 11.75 10Z" fill="#EF7A2D"/>
<path d="M19.25 5H18.25C17.1454 5 16.25 5.89543 16.25 7V18C16.25 19.1046 17.1454 20 18.25 20H19.25C20.3546 20 21.25 19.1046 21.25 18V7C21.25 5.89543 20.3546 5 19.25 5Z" fill="#EF7A2D"/>
</svg>
