<svg width="30" height="30" viewBox="0 0 30 30" fill="none" xmlns="http://www.w3.org/2000/svg">
<path d="M10 6C10 5.44772 10.4477 5 11 5H13.3358C13.601 5 13.8554 5.10536 14.0429 5.29289L14.7071 5.95711C14.8946 6.14464 15.149 6.25 15.4142 6.25H19C19.5523 6.25 20 6.69772 20 7.25V12.75C20 13.3023 19.5523 13.75 19 13.75H11C10.4477 13.75 10 13.3023 10 12.75V6Z" fill="#EF7A2D"/>
<path d="M17.5 17.25C17.5 16.6977 17.9477 16.25 18.5 16.25H20.8358C21.101 16.25 21.3554 16.3554 21.5429 16.5429L22.2071 17.2071C22.3946 17.3946 22.649 17.5 22.9142 17.5H26.5C27.0523 17.5 27.5 17.9477 27.5 18.5V24C27.5 24.5523 27.0523 25 26.5 25H18.5C17.9477 25 17.5 24.5523 17.5 24V17.25Z" fill="#EF7A2D"/>
<path d="M2.5 17.25C2.5 16.6977 2.94772 16.25 3.5 16.25H5.83579C6.101 16.25 6.35536 16.3554 6.54289 16.5429L7.20711 17.2071C7.39464 17.3946 7.649 17.5 7.91421 17.5H11.5C12.0523 17.5 12.5 17.9477 12.5 18.5V24C12.5 24.5523 12.0523 25 11.5 25H3.5C2.94772 25 2.5 24.5523 2.5 24V17.25Z" fill="#EF7A2D"/>
<path d="M8.75 8.75L6.25 10.625V9.25H5.97461C5.68688 9.25 5.50092 9.25019 5.35938 9.26172C5.22403 9.27278 5.17325 9.29209 5.14844 9.30469C5.05436 9.35262 4.97762 9.42936 4.92969 9.52344C4.91709 9.54825 4.89778 9.59903 4.88672 9.73438C4.87519 9.87592 4.875 10.0619 4.875 10.3496V15H3.875V10.3496C3.875 10.078 3.87496 9.84409 3.89062 9.65234C3.90677 9.45487 3.94188 9.25834 4.03809 9.06934C4.1819 8.78709 4.41209 8.5569 4.69434 8.41309C4.88334 8.31688 5.07987 8.28177 5.27734 8.26562C5.46909 8.24996 5.703 8.25 5.97461 8.25H6.25V6.875L8.75 8.75ZM23.75 8.25H24.0254C24.297 8.25 24.5309 8.24996 24.7227 8.26562C24.9201 8.28177 25.1167 8.31688 25.3057 8.41309C25.5879 8.5569 25.8181 8.78709 25.9619 9.06934C26.0581 9.25834 26.0932 9.45487 26.1094 9.65234C26.125 9.84409 26.125 10.078 26.125 10.3496V15H25.125V10.3496C25.125 10.0619 25.1248 9.87592 25.1133 9.73438C25.1022 9.59903 25.0829 9.54825 25.0703 9.52344C25.0224 9.42936 24.9456 9.35262 24.8516 9.30469C24.8267 9.29209 24.776 9.27278 24.6406 9.26172C24.4991 9.25019 24.3131 9.25 24.0254 9.25H23.75V10.625L21.25 8.75L23.75 6.875V8.25Z" fill="#EF7A2D"/>
</svg>
