<svg width="30" height="30" viewBox="0 0 30 30" fill="none" xmlns="http://www.w3.org/2000/svg">
<path d="M5 13.2C5 12.0799 5 11.5198 5.21799 11.092C5.40973 10.7157 5.71569 10.4097 6.09202 10.218C6.51984 10 7.0799 10 8.2 10H11.0012C11.5521 10 11.8276 10 12.0829 10.0687C12.309 10.1295 12.5228 10.2296 12.7143 10.3644C12.9305 10.5166 13.1068 10.7282 13.4595 11.1514L15.625 13.75H19.3C20.4201 13.75 20.9802 13.75 21.408 13.968C21.7843 14.1597 22.0903 14.4657 22.282 14.842C22.5 15.2698 22.5 15.8299 22.5 16.95V21.8C22.5 22.9201 22.5 23.4802 22.282 23.908C22.0903 24.2843 21.7843 24.5903 21.408 24.782C20.9802 25 20.4201 25 19.3 25H8.2C7.0799 25 6.51984 25 6.09202 24.782C5.71569 24.5903 5.40973 24.2843 5.21799 23.908C5 23.4802 5 22.9201 5 21.8V13.2Z" fill="#EF7A2D" fill-opacity="0.25"/>
<path d="M8.75 9.45C8.75 8.32989 8.75 7.76984 8.96799 7.34202C9.15973 6.96569 9.46569 6.65973 9.84202 6.46799C10.2698 6.25 10.8299 6.25 11.95 6.25H14.7512C15.3021 6.25 15.5776 6.25 15.8329 6.31868C16.059 6.37953 16.2728 6.47963 16.4643 6.61443C16.6805 6.76656 16.8568 6.97818 17.2095 7.40141L19.375 10H23.05C24.1701 10 24.7302 10 25.158 10.218C25.5343 10.4097 25.8403 10.7157 26.032 11.092C26.25 11.5198 26.25 12.0799 26.25 13.2V18.05C26.25 19.1701 26.25 19.7302 26.032 20.158C25.8403 20.5343 25.5343 20.8403 25.158 21.032C24.7302 21.25 24.1701 21.25 23.05 21.25H11.95C10.8299 21.25 10.2698 21.25 9.84202 21.032C9.46569 20.8403 9.15973 20.5343 8.96799 20.158C8.75 19.7302 8.75 19.1701 8.75 18.05V9.45Z" fill="#EF7A2D"/>
</svg>
