<svg width="52" height="52" viewBox="0 0 52 52" fill="none" xmlns="http://www.w3.org/2000/svg">
<path fill-rule="evenodd" clip-rule="evenodd" d="M39 21.667C39 14.4873 33.1797 8.66699 26 8.66699C18.8203 8.66699 13 14.4873 13 21.667C13.0001 26.173 15.293 30.1431 18.7754 32.4753L18.7754 32.4753C19.0454 32.6562 19.1804 32.7466 19.2713 32.8543C19.3622 32.962 19.4186 33.0881 19.5314 33.3403C19.9049 34.1753 20.231 35.0293 20.5083 35.8982C24.0955 36.9223 27.9037 36.9224 31.4909 35.8984C31.7681 35.0295 32.0941 34.1754 32.4676 33.3403L32.4676 33.3403C32.5804 33.0882 32.6369 32.9621 32.7277 32.8543C32.8186 32.7466 32.9537 32.6561 33.2238 32.4753C36.7065 30.1431 38.9999 26.1732 39 21.667ZM30.8964 38.1156C27.6747 38.8506 24.3248 38.8505 21.1031 38.1152C21.3888 39.4225 21.5676 40.7543 21.6357 42.0977C21.6674 42.7235 21.6833 43.0364 21.8312 43.2628C21.9791 43.4891 22.2435 43.6214 22.7723 43.8859L24.2109 44.6055C25.337 45.1685 26.663 45.1685 27.7891 44.6055L29.2277 43.8859C29.7565 43.6214 30.0209 43.4891 30.1688 43.2627C30.3167 43.0364 30.3326 42.7235 30.3643 42.0977C30.4323 40.7545 30.6109 39.4227 30.8964 38.1156Z" fill="#EF7A2D"/>
</svg>
