<svg width="52" height="52" viewBox="0 0 52 52" fill="none" xmlns="http://www.w3.org/2000/svg">
<path d="M34.618 28.1675C34.3848 33.6242 33.2852 38.4432 31.6884 41.9565C29.8132 46.0817 27.6628 47.6347 26.0487 47.6655C26.0325 47.6656 26.0161 47.6665 25.9999 47.6665C25.9833 47.6665 25.9667 47.6656 25.9501 47.6655C24.3362 47.6339 22.1871 46.0805 20.3124 41.9565C18.7155 38.4432 17.615 33.6243 17.3817 28.1675H34.618ZM13.0448 28.1675C13.28 34.1419 14.4779 39.5942 16.3671 43.7505C16.7089 44.5025 17.0863 45.235 17.4969 45.9341C10.3903 42.8988 5.2366 36.1745 4.44128 28.1675H13.0448ZM47.5585 28.1675C46.7631 36.1747 41.6089 42.8979 34.5018 45.9331C34.9124 45.2341 35.2909 44.5024 35.6327 43.7505C37.5219 39.5942 38.7188 34.1419 38.954 28.1675H47.5585ZM34.5018 6.06494C41.6095 9.1001 46.7634 15.8256 47.5585 23.8335H38.954C38.7189 17.8592 37.5218 12.4078 35.6327 8.25146C35.2905 7.49863 34.9129 6.76475 34.5018 6.06494ZM17.4979 6.06494C17.0868 6.76472 16.7092 7.49866 16.3671 8.25146C14.478 12.4078 13.2799 17.8592 13.0448 23.8335H4.44128C5.23633 15.8256 10.3903 9.10015 17.4979 6.06494ZM25.9999 4.3335C27.6193 4.3337 29.7942 5.87728 31.6884 10.0444C33.2852 13.5579 34.3849 18.3766 34.618 23.8335H17.3817C17.6148 18.3765 18.7155 13.5579 20.3124 10.0444C22.2065 5.87748 24.3805 4.33378 25.9999 4.3335Z" fill="#EF7A2D"/>
</svg>
