<svg width="30" height="30" viewBox="0 0 30 30" fill="none" xmlns="http://www.w3.org/2000/svg">
<path d="M14.1056 4.19721L6.78885 7.85557C6.00831 8.24585 5.61803 8.44098 5.61803 8.75C5.61803 9.05902 6.00831 9.25415 6.78886 9.64443L14.1056 13.3028C14.5445 13.5222 14.7639 13.632 15 13.632C15.2361 13.632 15.4555 13.5222 15.8944 13.3028L23.2111 9.64443C23.9917 9.25415 24.382 9.05902 24.382 8.75C24.382 8.44098 23.9917 8.24585 23.2111 7.85557L15.8944 4.19721C15.4555 3.97776 15.2361 3.86803 15 3.86803C14.7639 3.86803 14.5445 3.97776 14.1056 4.19721Z" fill="#EF7A2D"/>
<path d="M23.2108 14.1055C23.9911 14.4956 24.3814 14.6912 24.3817 15C24.3817 15.309 23.9914 15.5043 23.2108 15.8945L15.8944 19.5527C15.4555 19.7722 15.2359 19.8818 14.9999 19.8818C14.7639 19.8818 14.5442 19.7721 14.1053 19.5527L6.78894 15.8945C6.00842 15.5043 5.61804 15.309 5.61804 15C5.61834 14.6912 6.00869 14.4956 6.78894 14.1055L8.75085 13.124C9.03621 13.268 9.33747 13.4193 9.65515 13.5781L13.2108 15.3564C14.0886 15.7953 14.5278 16.0146 14.9999 16.0146C15.472 16.0146 15.9111 15.7953 16.7889 15.3564L20.3446 13.5781C20.662 13.4194 20.9628 13.2679 21.2479 13.124L23.2108 14.1055Z" fill="#EF7A2D"/>
<path d="M23.2108 20.3555C23.9913 20.7457 24.3817 20.941 24.3817 21.25C24.3817 21.559 23.9914 21.7543 23.2108 22.1445L15.8944 25.8027C15.4555 26.0222 15.2359 26.1318 14.9999 26.1318C14.7639 26.1318 14.5442 26.0221 14.1053 25.8027L6.78894 22.1445C6.00839 21.7543 5.61804 21.559 5.61804 21.25C5.61808 20.941 6.00843 20.7457 6.78894 20.3555L8.74988 19.374C9.03558 19.5182 9.33704 19.67 9.65515 19.8291L13.2108 21.6064C14.0885 22.0453 14.5278 22.2646 14.9999 22.2646C15.472 22.2646 15.9111 22.0454 16.7889 21.6064L20.3446 19.8291C20.6624 19.6702 20.9635 19.518 21.2489 19.374L23.2108 20.3555Z" fill="#EF7A2D"/>
</svg>
