<svg width="52" height="52" viewBox="0 0 52 52" fill="none" xmlns="http://www.w3.org/2000/svg">
<path d="M25.5 10.625C36.0624 10.625 44.625 19.1876 44.625 29.75V31.875C44.625 34.2222 42.7222 36.125 40.375 36.125H10.625C8.27779 36.125 6.375 34.2222 6.375 31.875V29.75C6.375 19.1876 14.9376 10.625 25.5 10.625ZM33.0537 19.4814C32.0774 18.8309 30.7574 19.0952 30.1064 20.0713L26.4619 25.5361C26.2457 25.5128 26.0261 25.5 25.8037 25.5H25.1963C21.8432 25.5001 19.125 28.2192 19.125 31.5723C19.1255 31.7395 19.2613 31.875 19.4287 31.875H31.5713C31.7387 31.875 31.8745 31.7395 31.875 31.5723C31.875 29.9918 31.2708 28.5519 30.2812 27.4717L33.6436 22.4287C34.2941 21.4523 34.0299 20.1324 33.0537 19.4814Z" fill="#EF7A2D"/>
</svg>
