<svg width="30" height="30" viewBox="0 0 30 30" fill="none" xmlns="http://www.w3.org/2000/svg">
<path fill-rule="evenodd" clip-rule="evenodd" d="M22.5 12.5C22.5 8.35786 19.1421 5 15 5C10.8579 5 7.5 8.35786 7.5 12.5C7.5 15.0084 8.7318 17.2286 10.6231 18.5901C10.9041 18.7923 11.0446 18.8935 11.1301 19.0003C11.2156 19.1071 11.2665 19.2264 11.3682 19.4651C11.4741 19.7136 11.5728 19.9648 11.6642 20.2185C13.834 20.901 16.1651 20.9011 18.3349 20.2186C18.4263 19.9649 18.5249 19.7137 18.6308 19.4653C18.7325 19.2266 18.7834 19.1072 18.8689 19.0003C18.9544 18.8935 19.095 18.7923 19.376 18.59C21.2677 17.2286 22.5 15.0086 22.5 12.5ZM17.7337 22.4431C15.932 22.8268 14.0676 22.8267 12.2659 22.4429C12.3732 23.0241 12.4441 23.6128 12.4776 24.2056C12.489 24.4072 12.4947 24.508 12.5101 24.5817C12.5649 24.8429 12.6945 25.04 12.9127 25.1938C12.9743 25.2371 13.0532 25.2766 13.2109 25.3555C14.337 25.9185 15.663 25.9185 16.7891 25.3555L16.7891 25.3555C16.9469 25.2766 17.0257 25.2371 17.0873 25.1938C17.3055 25.04 17.4351 24.8429 17.4899 24.5816C17.5053 24.5079 17.511 24.4071 17.5224 24.2056L17.5224 24.2056C17.5558 23.6129 17.6266 23.0243 17.7337 22.4431Z" fill="#EF7A2D"/>
</svg>
