<svg width="52" height="52" viewBox="0 0 52 52" fill="none" xmlns="http://www.w3.org/2000/svg">
<path d="M29.9922 39.9404C30.2683 40.0406 30.5751 40.0139 30.8301 39.8682L44.7519 31.9128C45.0853 31.7223 45.5 31.963 45.5 32.3469V38.7098C45.5 38.8893 45.4039 39.0549 45.2481 39.144L30.5342 47.552C30.4066 47.6249 30.2534 47.638 30.1152 47.5878L6.82912 39.1197C6.63153 39.0478 6.5 38.86 6.5 38.6498V32.1113C6.5 31.7643 6.84479 31.5228 7.17088 31.6414L29.9922 39.9404ZM29.9922 29.1074C30.2682 29.2075 30.5751 29.1809 30.8301 29.0352L44.7519 21.0798C45.0853 20.8893 45.5 21.13 45.5 21.5139V28.8905C45.5 29.0699 45.4039 29.2356 45.2481 29.3246L30.4404 37.7864C30.3128 37.8593 30.1596 37.8724 30.0215 37.8222L6.82912 29.3882C6.63153 29.3164 6.5 29.1286 6.5 28.9183V21.2783C6.5 20.9313 6.84479 20.6898 7.17088 20.8084L29.9922 29.1074ZM45.1709 15.0473C45.3685 15.1192 45.5 15.3069 45.5 15.5172V18.0575C45.5 18.2369 45.4039 18.4026 45.2481 18.4916L30.4404 26.9534C30.3128 27.0263 30.1596 27.0394 30.0215 26.9892L6.82912 18.5552C6.63153 18.4834 6.5 18.2956 6.5 18.0853V15.4572C6.5 15.2777 6.59614 15.1121 6.75193 15.023L21.4658 6.61497C21.5934 6.54205 21.7466 6.52896 21.8848 6.57919L45.1709 15.0473Z" fill="#EF7A2D"/>
</svg>
