<svg width="24" height="24" viewBox="0 0 24 24" fill="none" xmlns="http://www.w3.org/2000/svg">
<path d="M19.2 3.2002H4.8C3.916 3.2002 3.2 3.9162 3.2 4.8002V19.2002C3.2 20.0842 3.916 20.8002 4.8 20.8002H19.2C20.084 20.8002 20.8 20.0842 20.8 19.2002V4.8002C20.8 3.9162 20.0832 3.2002 19.2 3.2002ZM18.1512 10.7794C18.0472 10.789 17.9424 10.7954 17.8368 10.7954C16.6408 10.7954 15.5896 10.181 14.9776 9.2506C14.9776 11.6898 14.9776 14.4658 14.9776 14.5122C14.9776 16.6602 13.236 18.401 11.0888 18.401C8.9416 18.4002 7.2 16.6586 7.2 14.5114C7.2 12.3634 8.9416 10.6226 11.0888 10.6226C11.1704 10.6226 11.2496 10.6298 11.3288 10.6346V12.5514C11.2488 12.5418 11.1712 12.5274 11.0888 12.5274C9.9928 12.5274 9.104 13.4162 9.104 14.5122C9.104 15.6082 9.992 16.497 11.0888 16.497C12.1856 16.497 13.1536 15.633 13.1536 14.537C13.1536 14.493 13.1728 5.601 13.1728 5.601H15.004C15.176 7.2386 16.4984 8.5314 18.1512 8.6498V10.7794Z" fill="#6A6A6A"/>
</svg>
